<?xml version="1.0" encoding="UTF-8" standalone="no"?>
<!-- Created with Inkscape (http://www.inkscape.org/) -->

<svg
   xmlns:dc="http://purl.org/dc/elements/1.1/"
   xmlns:cc="http://creativecommons.org/ns#"
   xmlns:rdf="http://www.w3.org/1999/02/22-rdf-syntax-ns#"
   xmlns:svg="http://www.w3.org/2000/svg"
   xmlns="http://www.w3.org/2000/svg"
   xmlns:sodipodi="http://sodipodi.sourceforge.net/DTD/sodipodi-0.dtd"
   xmlns:inkscape="http://www.inkscape.org/namespaces/inkscape"
   width="16px"
   height="16px"
   id="svg5064"
   version="1.1"
   inkscape:version="0.48.3.1 r9886"
   sodipodi:docname="bold.svg">
  <defs
     id="defs5066" />
  <sodipodi:namedview
     id="base"
     pagecolor="#ffffff"
     bordercolor="#666666"
     borderopacity="1.0"
     inkscape:pageopacity="0.0"
     inkscape:pageshadow="2"
     inkscape:zoom="22.197802"
     inkscape:cx="10.601485"
     inkscape:cy="7.5495049"
     inkscape:current-layer="layer1"
     showgrid="true"
     inkscape:grid-bbox="true"
     inkscape:document-units="px"
     inkscape:window-width="1215"
     inkscape:window-height="1000"
     inkscape:window-x="65"
     inkscape:window-y="24"
     inkscape:window-maximized="1" />
  <metadata
     id="metadata5069">
    <rdf:RDF>
      <cc:Work
         rdf:about="">
        <dc:format>image/svg+xml</dc:format>
        <dc:type
           rdf:resource="http://purl.org/dc/dcmitype/StillImage" />
        <dc:title />
      </cc:Work>
    </rdf:RDF>
  </metadata>
  <g
     id="layer1"
     inkscape:label="Layer 1"
     inkscape:groupmode="layer">
    <g
       style="display:inline"
       id="sc_bold"
       transform="translate(-141.0002,-357)"
       inkscape:label="sc_bold">
      <rect
         inkscape:label="a"
         y="357"
         x="141.0002"
         height="16"
         width="16"
         id="rect3825-9-8-3-5-0-9-9-2"
         style="color:#bebebe;fill:none;stroke:none;stroke-width:1;marker:none;visibility:visible;display:inline;overflow:visible" />
      <path
         style="color:#000000;fill:none;stroke:#bebebe;stroke-width:2;stroke-miterlimit:4;stroke-opacity:1;stroke-dasharray:none;marker:none;visibility:visible;display:inline;overflow:visible;enable-background:accumulate"
         d="m 146,361 6,0 c 1.05418,0 2,0.9899 2,2 l 0,6 -6,0 c -2.6123,0 -2.68326,-4 0,-4 l 6,0"
         id="path11643-3-1"
         inkscape:connector-curvature="0"
         sodipodi:nodetypes="ccccssc" />
      <path
         style="color:#000000;fill:none;stroke:#bebebe;stroke-width:2;stroke-miterlimit:4;stroke-opacity:1;stroke-dasharray:none;marker:none;visibility:visible;display:inline;overflow:visible;enable-background:accumulate"
         d="m 145,361 5,0 c 1.05418,0 2,0.9899 2,2 l 0,6 -6,0 c -2.6123,0 -2.68326,-4 0,-4 l 6,0"
         id="path11643-3-1-2"
         inkscape:connector-curvature="0"
         sodipodi:nodetypes="ccccssc" />
    </g>
    <g
       inkscape:label="lc_bold"
       transform="matrix(2,0,0,2,-262.0004,-730)"
       id="lc_bold"
       style="display:inline">
      <rect
         style="color:#bebebe;fill:none;stroke:none;stroke-width:1;marker:none;visibility:visible;display:inline;overflow:visible"
         id="rect7563"
         width="16"
         height="16"
         x="141.0002"
         y="357"
         inkscape:label="a" />
      <path
         sodipodi:nodetypes="ccccssc"
         inkscape:connector-curvature="0"
         id="path7565"
         d="m 146,361 6,0 c 1.05418,0 2,0.9899 2,2 l 0,6 -6,0 c -2.6123,0 -2.68326,-4 0,-4 l 6,0"
         style="color:#000000;fill:none;stroke:#bebebe;stroke-width:2;stroke-miterlimit:4;stroke-opacity:1;stroke-dasharray:none;marker:none;visibility:visible;display:inline;overflow:visible;enable-background:accumulate" />
      <path
         sodipodi:nodetypes="ccccssc"
         inkscape:connector-curvature="0"
         id="path7567"
         d="m 145,361 5,0 c 1.05418,0 2,0.9899 2,2 l 0,6 -6,0 c -2.6123,0 -2.68326,-4 0,-4 l 6,0"
         style="color:#000000;fill:none;stroke:#bebebe;stroke-width:2;stroke-miterlimit:4;stroke-opacity:1;stroke-dasharray:none;marker:none;visibility:visible;display:inline;overflow:visible;enable-background:accumulate" />
    </g>
  </g>
</svg>
