<?xml version="1.0" encoding="UTF-8" standalone="no"?>
<!-- Created with Inkscape (http://www.inkscape.org/) -->

<svg
   xmlns:dc="http://purl.org/dc/elements/1.1/"
   xmlns:cc="http://creativecommons.org/ns#"
   xmlns:rdf="http://www.w3.org/1999/02/22-rdf-syntax-ns#"
   xmlns:svg="http://www.w3.org/2000/svg"
   xmlns="http://www.w3.org/2000/svg"
   xmlns:sodipodi="http://sodipodi.sourceforge.net/DTD/sodipodi-0.dtd"
   xmlns:inkscape="http://www.inkscape.org/namespaces/inkscape"
   width="16px"
   height="16px"
   id="svg5064"
   version="1.1"
   inkscape:version="0.48.3.1 r9886"
   sodipodi:docname="template.svg">
  <defs
     id="defs5066" />
  <sodipodi:namedview
     id="base"
     pagecolor="#ffffff"
     bordercolor="#666666"
     borderopacity="1.0"
     inkscape:pageopacity="0.0"
     inkscape:pageshadow="2"
     inkscape:zoom="22.197802"
     inkscape:cx="10.060891"
     inkscape:cy="8"
     inkscape:current-layer="layer1"
     showgrid="true"
     inkscape:grid-bbox="true"
     inkscape:document-units="px"
     inkscape:window-width="1215"
     inkscape:window-height="1000"
     inkscape:window-x="65"
     inkscape:window-y="24"
     inkscape:window-maximized="1" />
  <metadata
     id="metadata5069">
    <rdf:RDF>
      <cc:Work
         rdf:about="">
        <dc:format>image/svg+xml</dc:format>
        <dc:type
           rdf:resource="http://purl.org/dc/dcmitype/StillImage" />
        <dc:title></dc:title>
      </cc:Work>
    </rdf:RDF>
  </metadata>
  <g
     id="layer1"
     inkscape:label="Layer 1"
     inkscape:groupmode="layer">
    <g
       transform="translate(-48,-398)"
       inkscape:label="sc_newdoc"
       id="g11497-6-7-9">
      <rect
         style="opacity:0.51464431;color:#bebebe;fill:none;stroke:none;stroke-width:3;marker:none;visibility:visible;display:inline;overflow:visible;enable-background:accumulate"
         id="rect10727-3-4-6"
         width="16"
         height="16"
         x="48"
         y="398" />
      <path
         inkscape:connector-curvature="0"
         id="path1234"
         d="m 50.812695,399 a 1.0000999,1.0000999 0 0 0 -0.8125,1 l 0,13 a 1.0000999,1.0000999 0 0 0 1,1 l 10,0 a 1.0000999,1.0000999 0 0 0 1,-1 l 0,-9.4375 a 1.0000999,1.0000999 0 0 0 -0.28125,-0.71875 l -3.5625,-3.5625 A 1.0000999,1.0000999 0 0 0 57.437695,399 l -6.4375,0 a 1.0000999,1.0000999 0 0 0 -0.0937,0 1.0000999,1.0000999 0 0 0 -0.0937,0 z m 1.1875,2 5,0 0,3 3,0 0,8 -8,0 0,-11 z"
         style="font-size:medium;font-style:normal;font-variant:normal;font-weight:normal;font-stretch:normal;text-indent:0;text-align:start;text-decoration:none;line-height:normal;letter-spacing:normal;word-spacing:normal;text-transform:none;direction:ltr;block-progression:tb;writing-mode:lr-tb;text-anchor:start;baseline-shift:baseline;color:#000000;fill:#bebebe;fill-opacity:1;stroke:none;stroke-width:1.99999988;marker:none;visibility:visible;display:inline;overflow:visible;enable-background:accumulate;font-family:Sans;-inkscape-font-specification:Sans" />
    </g>
    <g
       id="g23008"
       inkscape:label="lc_newdoc"
       transform="matrix(2,0,0,2,-76,-812)">
      <rect
         y="398"
         x="48"
         height="16"
         width="16"
         id="rect23010"
         style="opacity:0.51464431;color:#bebebe;fill:none;stroke:none;stroke-width:3;marker:none;visibility:visible;display:inline;overflow:visible;enable-background:accumulate" />
      <path
         style="font-size:medium;font-style:normal;font-variant:normal;font-weight:normal;font-stretch:normal;text-indent:0;text-align:start;text-decoration:none;line-height:normal;letter-spacing:normal;word-spacing:normal;text-transform:none;direction:ltr;block-progression:tb;writing-mode:lr-tb;text-anchor:start;baseline-shift:baseline;color:#000000;fill:#bebebe;fill-opacity:1;stroke:none;stroke-width:1.99999988;marker:none;visibility:visible;display:inline;overflow:visible;enable-background:accumulate;font-family:Sans;-inkscape-font-specification:Sans"
         d="m 50.812695,399 a 1.0000999,1.0000999 0 0 0 -0.8125,1 l 0,13 a 1.0000999,1.0000999 0 0 0 1,1 l 10,0 a 1.0000999,1.0000999 0 0 0 1,-1 l 0,-9.4375 a 1.0000999,1.0000999 0 0 0 -0.28125,-0.71875 l -3.5625,-3.5625 A 1.0000999,1.0000999 0 0 0 57.437695,399 l -6.4375,0 a 1.0000999,1.0000999 0 0 0 -0.0937,0 1.0000999,1.0000999 0 0 0 -0.0937,0 z m 1.1875,2 5,0 0,3 3,0 0,8 -8,0 0,-11 z"
         id="path23012"
         inkscape:connector-curvature="0" />
    </g>
  </g>
</svg>
