<?xml version="1.0" encoding="UTF-8" standalone="no"?>
<!-- Created with Inkscape (http://www.inkscape.org/) -->

<svg
   xmlns:dc="http://purl.org/dc/elements/1.1/"
   xmlns:cc="http://creativecommons.org/ns#"
   xmlns:rdf="http://www.w3.org/1999/02/22-rdf-syntax-ns#"
   xmlns:svg="http://www.w3.org/2000/svg"
   xmlns="http://www.w3.org/2000/svg"
   xmlns:sodipodi="http://sodipodi.sourceforge.net/DTD/sodipodi-0.dtd"
   xmlns:inkscape="http://www.inkscape.org/namespaces/inkscape"
   width="16px"
   height="16px"
   id="svg5064"
   version="1.1"
   inkscape:version="0.48.3.1 r9886"
   sodipodi:docname="template.svg">
  <defs
     id="defs5066" />
  <sodipodi:namedview
     id="base"
     pagecolor="#ffffff"
     bordercolor="#666666"
     borderopacity="1.0"
     inkscape:pageopacity="0.0"
     inkscape:pageshadow="2"
     inkscape:zoom="22.197802"
     inkscape:cx="10.060891"
     inkscape:cy="8"
     inkscape:current-layer="layer1"
     showgrid="true"
     inkscape:grid-bbox="true"
     inkscape:document-units="px"
     inkscape:window-width="1215"
     inkscape:window-height="1000"
     inkscape:window-x="65"
     inkscape:window-y="24"
     inkscape:window-maximized="1" />
  <metadata
     id="metadata5069">
    <rdf:RDF>
      <cc:Work
         rdf:about="">
        <dc:format>image/svg+xml</dc:format>
        <dc:type
           rdf:resource="http://purl.org/dc/dcmitype/StillImage" />
        <dc:title></dc:title>
      </cc:Work>
    </rdf:RDF>
  </metadata>
  <g
     id="layer1"
     inkscape:label="Layer 1"
     inkscape:groupmode="layer">
    <g
       id="g4958-1-4"
       inkscape:label="sc_open"
       transform="translate(-207.9998,-996)"
       style="display:inline">
      <path
         sodipodi:nodetypes="ccccccccccscccccc"
         id="rect3845-5-8"
         d="m 208.53105,1001 c -0.28913,0 -0.53125,0.2421 -0.53125,0.5313 l 0,9.9375 c 0,0.2985 0.23264,0.5312 0.53125,0.5312 l 13.8125,0 c 0.2986,0 0.53125,-0.2326 0.53125,-0.5312 l 1.125,-4.9159 c 0,-0.2891 -0.24212,-0.5312 -0.53125,-0.5312 l -11.59375,0 -0.875,3.4783 c 0,0.277 -0.223,0.5 -0.5,0.5 -0.277,0 -0.5,-0.223 -0.5,-0.5 l 0,-4.9966 c 0,-0.277 0.223,-0.5 0.5,-0.5 l 0.46615,0 0,-3.0034 z"
         style="fill:#bebebe;fill-opacity:1;stroke:none;display:inline"
         inkscape:connector-curvature="0" />
      <rect
         y="996"
         x="207.9998"
         height="16"
         width="16"
         id="rect14152-1-1"
         style="color:#bebebe;fill:none;stroke:none;stroke-width:2;marker:none;visibility:visible;display:inline;overflow:visible;enable-background:accumulate" />
      <path
         style="font-size:medium;font-style:normal;font-variant:normal;font-weight:normal;font-stretch:normal;text-indent:0;text-align:start;text-decoration:none;line-height:normal;letter-spacing:normal;word-spacing:normal;text-transform:none;direction:ltr;block-progression:tb;writing-mode:lr-tb;text-anchor:start;baseline-shift:baseline;color:#000000;fill:#bebebe;fill-opacity:1;stroke:none;stroke-width:1.99999988;marker:none;visibility:visible;display:inline;overflow:visible;enable-background:accumulate;font-family:Sans;-inkscape-font-specification:Sans"
         d="m 212.8123,997 c -0.4584,0.0875 -0.82072,0.5334 -0.8125,1 l 0,7 2,0 0,-6 4,0 0,3 3,0 0,3 2,0 0,-3.4375 c 0.006,-0.2641 -0.0976,-0.529 -0.28125,-0.7188 l -3.5625,-3.56245 c -0.18978,-0.1837 -0.45469,-0.28737 -0.71875,-0.28125 l -5.4375,0 c -0.0312,-10e-4 -0.0625,-10e-4 -0.0937,0 -0.0312,-10e-4 -0.0625,-10e-4 -0.0937,0 z"
         id="path1234-3"
         inkscape:connector-curvature="0"
         sodipodi:nodetypes="cccccccccccccccccc" />
    </g>
    <g
       style="display:inline"
       transform="matrix(1.9999998,0,0,1.9999998,-395.99956,-2007.9998)"
       inkscape:label="lc_open"
       id="g22944">
      <path
         inkscape:connector-curvature="0"
         style="fill:#bebebe;fill-opacity:1;stroke:none;display:inline"
         d="m 208.53105,1001 c -0.28913,0 -0.53125,0.2421 -0.53125,0.5313 l 0,9.9375 c 0,0.2985 0.23264,0.5312 0.53125,0.5312 l 13.8125,0 c 0.2986,0 0.53125,-0.2326 0.53125,-0.5312 l 1.125,-4.9159 c 0,-0.2891 -0.24212,-0.5312 -0.53125,-0.5312 l -11.59375,0 -0.875,3.4783 c 0,0.277 -0.223,0.5 -0.5,0.5 -0.277,0 -0.5,-0.223 -0.5,-0.5 l 0,-4.9966 c 0,-0.277 0.223,-0.5 0.5,-0.5 l 0.46615,0 0,-3.0034 z"
         id="path22946"
         sodipodi:nodetypes="ccccccccccscccccc" />
      <rect
         style="color:#bebebe;fill:none;stroke:none;stroke-width:2;marker:none;visibility:visible;display:inline;overflow:visible;enable-background:accumulate"
         id="rect22948"
         width="16"
         height="16"
         x="207.9998"
         y="996" />
      <path
         sodipodi:nodetypes="cccccccccccccccccc"
         inkscape:connector-curvature="0"
         id="path22950"
         d="m 212.8123,997 c -0.4584,0.0875 -0.82072,0.5334 -0.8125,1 l 0,7 2,0 0,-6 4,0 0,3 3,0 0,3 2,0 0,-3.4375 c 0.006,-0.2641 -0.0976,-0.529 -0.28125,-0.7188 l -3.5625,-3.56245 c -0.18978,-0.1837 -0.45469,-0.28737 -0.71875,-0.28125 l -5.4375,0 c -0.0312,-10e-4 -0.0625,-10e-4 -0.0937,0 -0.0312,-10e-4 -0.0625,-10e-4 -0.0937,0 z"
         style="font-size:medium;font-style:normal;font-variant:normal;font-weight:normal;font-stretch:normal;text-indent:0;text-align:start;text-decoration:none;line-height:normal;letter-spacing:normal;word-spacing:normal;text-transform:none;direction:ltr;block-progression:tb;writing-mode:lr-tb;text-anchor:start;baseline-shift:baseline;color:#000000;fill:#bebebe;fill-opacity:1;stroke:none;stroke-width:1.99999988;marker:none;visibility:visible;display:inline;overflow:visible;enable-background:accumulate;font-family:Sans;-inkscape-font-specification:Sans" />
    </g>
  </g>
</svg>
