<?xml version="1.0" encoding="UTF-8" standalone="no"?>
<!-- Created with Inkscape (http://www.inkscape.org/) -->

<svg
   xmlns:dc="http://purl.org/dc/elements/1.1/"
   xmlns:cc="http://creativecommons.org/ns#"
   xmlns:rdf="http://www.w3.org/1999/02/22-rdf-syntax-ns#"
   xmlns:svg="http://www.w3.org/2000/svg"
   xmlns="http://www.w3.org/2000/svg"
   xmlns:sodipodi="http://sodipodi.sourceforge.net/DTD/sodipodi-0.dtd"
   xmlns:inkscape="http://www.inkscape.org/namespaces/inkscape"
   width="16px"
   height="16px"
   id="svg5064"
   version="1.1"
   inkscape:version="0.48.3.1 r9886"
   sodipodi:docname="template.svg">
  <defs
     id="defs5066" />
  <sodipodi:namedview
     id="base"
     pagecolor="#ffffff"
     bordercolor="#666666"
     borderopacity="1.0"
     inkscape:pageopacity="0.0"
     inkscape:pageshadow="2"
     inkscape:zoom="22.627417"
     inkscape:cx="7.9064865"
     inkscape:cy="5.9779145"
     inkscape:current-layer="layer1"
     showgrid="true"
     inkscape:grid-bbox="true"
     inkscape:document-units="px"
     inkscape:window-width="1215"
     inkscape:window-height="1000"
     inkscape:window-x="65"
     inkscape:window-y="24"
     inkscape:window-maximized="1">
    <inkscape:grid
       type="xygrid"
       id="grid24138" />
  </sodipodi:namedview>
  <metadata
     id="metadata5069">
    <rdf:RDF>
      <cc:Work
         rdf:about="">
        <dc:format>image/svg+xml</dc:format>
        <dc:type
           rdf:resource="http://purl.org/dc/dcmitype/StillImage" />
        <dc:title></dc:title>
      </cc:Work>
    </rdf:RDF>
  </metadata>
  <g
     id="layer1"
     inkscape:label="Layer 1"
     inkscape:groupmode="layer">
    <g
       style="display:inline"
       transform="translate(0,0.04938341)"
       id="g2987"
       inkscape:label="sc_pararighttoleft">
      <path
         d="m 6.0001232,-0.04938341 0,2.00000001 5.9999998,0 c 0.42816,0 1,0.61414 1,1 l 0,1 -4.9999998,0 c -0.91927,0 -1.7356,0.38396 -2.25,0.96875 -0.5144,0.58479 -0.75639,1.31063 -0.75,2.03125 0.006,0.72062 0.26893,1.45271 0.78125,2.03125 0.51232,0.57854 1.31047,0.96875 2.21875,0.96875 l 5.9999998,0 1,0 0,-1 0,-6 c 0,-1.63434 -1.3198,-3.00000001 -3,-3.00000001 l -5.9999998,0 z m 2,6.00000001 4.9999998,0 0,2 -4.9999998,0 c -0.39787,0 -0.56691,-0.10979 -0.71875,-0.28125 -0.15184,-0.17146 -0.27877,-0.43937 -0.28125,-0.71875 -0.002,-0.27938 0.10467,-0.55354 0.25,-0.71875 0.14533,-0.16521 0.32764,-0.28125 0.75,-0.28125 z"
         id="path11643-3-2-9"
         style="font-size:xx-small;font-style:normal;font-variant:normal;font-weight:normal;font-stretch:normal;text-indent:0;text-align:start;text-decoration:none;line-height:normal;letter-spacing:normal;word-spacing:normal;text-transform:none;direction:ltr;block-progression:tb;writing-mode:lr-tb;text-anchor:start;baseline-shift:baseline;color:#000000;fill:#bebebe;fill-opacity:1;stroke:none;stroke-width:2;marker:none;visibility:visible;display:inline;overflow:visible;enable-background:accumulate;font-family:Sans;-inkscape-font-specification:Sans"
         inkscape:connector-curvature="0" />
      <rect
         y="-0.049382459"
         x="-1.6064154e-08"
         height="15.999999"
         width="16"
         id="rect2998-5"
         style="fill:none;stroke:none" />
      <g
         style="display:inline"
         id="g4492"
         transform="translate(-322.0002,-647.04938)">
        <path
           style="font-size:medium;font-style:normal;font-variant:normal;font-weight:normal;font-stretch:normal;text-indent:0;text-align:start;text-decoration:none;line-height:normal;letter-spacing:normal;word-spacing:normal;text-transform:none;direction:ltr;block-progression:tb;writing-mode:lr-tb;text-anchor:start;color:#000000;fill:#bebebe;fill-opacity:1;stroke:none;stroke-width:2;marker:none;visibility:visible;display:inline;overflow:visible;enable-background:accumulate;font-family:Bitstream Vera Sans;-inkscape-font-specification:Bitstream Vera Sans"
           d="m 326.0002,662.00001 -1,-10e-6 c -0.26531,-3e-5 -0.53058,-0.0931 -0.71875,-0.28124 l -2,-2.00001 -0.28126,-0.28125 0,-0.87499 0.28126,-0.28126 2,-1.99999 c 0.18818,-0.18821 0.45347,-0.28121 0.71876,-0.28121 l 1,-10e-6 0,1 c 4e-5,0.26531 -0.0931,0.53059 -0.28121,0.71877 l -1.28126,1.28124 1.28125,1.28125 c 0.18815,0.18817 0.28125,0.45345 0.28125,0.71875 l 0,1 z"
           id="path4484"
           inkscape:connector-curvature="0"
           sodipodi:nodetypes="ccccccccscccccccc" />
        <path
           sodipodi:nodetypes="cc"
           inkscape:connector-curvature="0"
           id="path4486"
           d="m 337.0002,659 -13,0"
           style="color:#000000;fill:none;stroke:#bebebe;stroke-width:2;stroke-linecap:butt;stroke-linejoin:miter;stroke-miterlimit:4;stroke-opacity:1;stroke-dashoffset:0;marker:none;visibility:visible;display:inline;overflow:visible;enable-background:accumulate" />
      </g>
    </g>
    <g
       inkscape:label="lc_pararighttoleft"
       id="g24223"
       transform="matrix(1.9999988,0,0,1.9999988,20.00001,-15.901213)"
       style="display:inline">
      <path
         inkscape:connector-curvature="0"
         style="font-size:xx-small;font-style:normal;font-variant:normal;font-weight:normal;font-stretch:normal;text-indent:0;text-align:start;text-decoration:none;line-height:normal;letter-spacing:normal;word-spacing:normal;text-transform:none;direction:ltr;block-progression:tb;writing-mode:lr-tb;text-anchor:start;baseline-shift:baseline;color:#000000;fill:#bebebe;fill-opacity:1;stroke:none;stroke-width:2;marker:none;visibility:visible;display:inline;overflow:visible;enable-background:accumulate;font-family:Sans;-inkscape-font-specification:Sans"
         id="path24225"
         d="m 6.0001232,-0.04938341 0,2.00000001 5.9999998,0 c 0.42816,0 1,0.61414 1,1 l 0,1 -4.9999998,0 c -0.91927,0 -1.7356,0.38396 -2.25,0.96875 -0.5144,0.58479 -0.75639,1.31063 -0.75,2.03125 0.006,0.72062 0.26893,1.45271 0.78125,2.03125 0.51232,0.57854 1.31047,0.96875 2.21875,0.96875 l 5.9999998,0 1,0 0,-1 0,-6 c 0,-1.63434 -1.3198,-3.00000001 -3,-3.00000001 l -5.9999998,0 z m 2,6.00000001 4.9999998,0 0,2 -4.9999998,0 c -0.39787,0 -0.56691,-0.10979 -0.71875,-0.28125 -0.15184,-0.17146 -0.27877,-0.43937 -0.28125,-0.71875 -0.002,-0.27938 0.10467,-0.55354 0.25,-0.71875 0.14533,-0.16521 0.32764,-0.28125 0.75,-0.28125 z" />
      <rect
         style="fill:none;stroke:none"
         id="rect24227"
         width="16"
         height="15.999999"
         x="-1.6064154e-08"
         y="-0.049382459" />
      <g
         transform="translate(-322.0002,-647.04938)"
         id="g24229"
         style="display:inline">
        <path
           sodipodi:nodetypes="ccccccccscccccccc"
           inkscape:connector-curvature="0"
           id="path24231"
           d="m 326.0002,662.00001 -1,-10e-6 c -0.26531,-3e-5 -0.53058,-0.0931 -0.71875,-0.28124 l -2,-2.00001 -0.28126,-0.28125 0,-0.87499 0.28126,-0.28126 2,-1.99999 c 0.18818,-0.18821 0.45347,-0.28121 0.71876,-0.28121 l 1,-10e-6 0,1 c 4e-5,0.26531 -0.0931,0.53059 -0.28121,0.71877 l -1.28126,1.28124 1.28125,1.28125 c 0.18815,0.18817 0.28125,0.45345 0.28125,0.71875 l 0,1 z"
           style="font-size:medium;font-style:normal;font-variant:normal;font-weight:normal;font-stretch:normal;text-indent:0;text-align:start;text-decoration:none;line-height:normal;letter-spacing:normal;word-spacing:normal;text-transform:none;direction:ltr;block-progression:tb;writing-mode:lr-tb;text-anchor:start;color:#000000;fill:#bebebe;fill-opacity:1;stroke:none;stroke-width:2;marker:none;visibility:visible;display:inline;overflow:visible;enable-background:accumulate;font-family:Bitstream Vera Sans;-inkscape-font-specification:Bitstream Vera Sans" />
        <path
           style="color:#000000;fill:none;stroke:#bebebe;stroke-width:2;stroke-linecap:butt;stroke-linejoin:miter;stroke-miterlimit:4;stroke-opacity:1;stroke-dashoffset:0;marker:none;visibility:visible;display:inline;overflow:visible;enable-background:accumulate"
           d="m 337.0002,659 -13,0"
           id="path24233"
           inkscape:connector-curvature="0"
           sodipodi:nodetypes="cc" />
      </g>
    </g>
  </g>
</svg>
