<?xml version="1.0" encoding="UTF-8" standalone="no"?>
<!-- Created with Inkscape (http://www.inkscape.org/) -->

<svg
   xmlns:dc="http://purl.org/dc/elements/1.1/"
   xmlns:cc="http://creativecommons.org/ns#"
   xmlns:rdf="http://www.w3.org/1999/02/22-rdf-syntax-ns#"
   xmlns:svg="http://www.w3.org/2000/svg"
   xmlns="http://www.w3.org/2000/svg"
   xmlns:sodipodi="http://sodipodi.sourceforge.net/DTD/sodipodi-0.dtd"
   xmlns:inkscape="http://www.inkscape.org/namespaces/inkscape"
   width="16px"
   height="16px"
   id="svg5064"
   version="1.1"
   inkscape:version="0.48.3.1 r9886"
   sodipodi:docname="underline.svg">
  <defs
     id="defs5066" />
  <sodipodi:namedview
     id="base"
     pagecolor="#ffffff"
     bordercolor="#666666"
     borderopacity="1.0"
     inkscape:pageopacity="0.0"
     inkscape:pageshadow="2"
     inkscape:zoom="22.197802"
     inkscape:cx="10.060891"
     inkscape:cy="8"
     inkscape:current-layer="layer1"
     showgrid="true"
     inkscape:grid-bbox="true"
     inkscape:document-units="px"
     inkscape:window-width="1215"
     inkscape:window-height="1000"
     inkscape:window-x="65"
     inkscape:window-y="24"
     inkscape:window-maximized="1" />
  <metadata
     id="metadata5069">
    <rdf:RDF>
      <cc:Work
         rdf:about="">
        <dc:format>image/svg+xml</dc:format>
        <dc:type
           rdf:resource="http://purl.org/dc/dcmitype/StillImage" />
        <dc:title></dc:title>
      </cc:Work>
    </rdf:RDF>
  </metadata>
  <g
     id="layer1"
     inkscape:label="Layer 1"
     inkscape:groupmode="layer">
    <g
       style="display:inline"
       id="g4969-4-0-0"
       transform="translate(-141,-357)"
       inkscape:label="sc_strikeout">
      <rect
         inkscape:label="a"
         y="357"
         x="141.0002"
         height="16"
         width="16"
         id="rect3825-9-8-3-5-0-9-9-7-0"
         style="color:#bebebe;fill:none;stroke:none;stroke-width:1;marker:none;visibility:visible;display:inline;overflow:visible" />
      <path
         style="font-size:medium;font-style:normal;font-variant:normal;font-weight:normal;font-stretch:normal;text-indent:0;text-align:start;text-decoration:none;line-height:normal;letter-spacing:normal;word-spacing:normal;text-transform:none;direction:ltr;block-progression:tb;writing-mode:lr-tb;text-anchor:start;color:#000000;fill:#bebebe;fill-opacity:1;stroke:none;stroke-width:2;marker:none;visibility:visible;display:inline;overflow:visible;enable-background:accumulate;font-family:Sans;-inkscape-font-specification:Sans"
         d="m 244,709 0,2 6,0 c 0.42816,0 1,0.61414 1,1 l 2,0 c 0,-1.63434 -1.3198,-3 -3,-3 l -6,0 z m -1,7 c 0.006,0.72062 0.26893,1.45271 0.78125,2.03125 C 244.29357,718.60979 245.09172,719 246,719 l 6,0 1,0 0,-1 0,-2 -2,0 0,1 -5,0 c -0.39787,0 -0.56691,-0.10979 -0.71875,-0.28125 C 245.12941,716.54729 245.00248,716.27938 245,716 l -2,0 z"
         transform="translate(-99.000002,-349)"
         id="path11643-3-2-6"
         inkscape:connector-curvature="0" />
      <path
         style="fill:none;stroke:#bebebe;stroke-width:2;stroke-linecap:butt;stroke-linejoin:miter;stroke-miterlimit:4;stroke-opacity:1;stroke-dasharray:none"
         d="m 142,365 14,0"
         id="path5100-8"
         inkscape:connector-curvature="0"
         sodipodi:nodetypes="cc" />
    </g>
    <g
       inkscape:label="lc_strikeout"
       transform="matrix(1.9999752,0,0,1.9999752,-261.9965,-729.99075)"
       id="g20838"
       style="display:inline">
      <rect
         style="color:#bebebe;fill:none;stroke:none;stroke-width:1;marker:none;visibility:visible;display:inline;overflow:visible"
         id="rect20840"
         width="16"
         height="16"
         x="141.0002"
         y="357"
         inkscape:label="a" />
      <path
         inkscape:connector-curvature="0"
         id="path20842"
         transform="translate(-99.000002,-349)"
         d="m 244,709 0,2 6,0 c 0.42816,0 1,0.61414 1,1 l 2,0 c 0,-1.63434 -1.3198,-3 -3,-3 l -6,0 z m -1,7 c 0.006,0.72062 0.26893,1.45271 0.78125,2.03125 C 244.29357,718.60979 245.09172,719 246,719 l 6,0 1,0 0,-1 0,-2 -2,0 0,1 -5,0 c -0.39787,0 -0.56691,-0.10979 -0.71875,-0.28125 C 245.12941,716.54729 245.00248,716.27938 245,716 l -2,0 z"
         style="font-size:medium;font-style:normal;font-variant:normal;font-weight:normal;font-stretch:normal;text-indent:0;text-align:start;text-decoration:none;line-height:normal;letter-spacing:normal;word-spacing:normal;text-transform:none;direction:ltr;block-progression:tb;writing-mode:lr-tb;text-anchor:start;color:#000000;fill:#bebebe;fill-opacity:1;stroke:none;stroke-width:2;marker:none;visibility:visible;display:inline;overflow:visible;enable-background:accumulate;font-family:Sans;-inkscape-font-specification:Sans" />
      <path
         sodipodi:nodetypes="cc"
         inkscape:connector-curvature="0"
         id="path20844"
         d="m 142,365 14,0"
         style="fill:none;stroke:#bebebe;stroke-width:2;stroke-linecap:butt;stroke-linejoin:miter;stroke-miterlimit:4;stroke-opacity:1;stroke-dasharray:none" />
    </g>
  </g>
</svg>
