<?xml version="1.0" encoding="UTF-8" standalone="no"?>
<!-- Created with Inkscape (http://www.inkscape.org/) -->

<svg
   xmlns:dc="http://purl.org/dc/elements/1.1/"
   xmlns:cc="http://creativecommons.org/ns#"
   xmlns:rdf="http://www.w3.org/1999/02/22-rdf-syntax-ns#"
   xmlns:svg="http://www.w3.org/2000/svg"
   xmlns="http://www.w3.org/2000/svg"
   xmlns:sodipodi="http://sodipodi.sourceforge.net/DTD/sodipodi-0.dtd"
   xmlns:inkscape="http://www.inkscape.org/namespaces/inkscape"
   width="16px"
   height="16px"
   id="svg5064"
   version="1.1"
   inkscape:version="0.48.3.1 r9886"
   sodipodi:docname="redo.svg">
  <defs
     id="defs5066" />
  <sodipodi:namedview
     id="base"
     pagecolor="#ffffff"
     bordercolor="#666666"
     borderopacity="1.0"
     inkscape:pageopacity="0.0"
     inkscape:pageshadow="2"
     inkscape:zoom="22.197802"
     inkscape:cx="10.060891"
     inkscape:cy="8"
     inkscape:current-layer="layer1"
     showgrid="true"
     inkscape:grid-bbox="true"
     inkscape:document-units="px"
     inkscape:window-width="1215"
     inkscape:window-height="1000"
     inkscape:window-x="65"
     inkscape:window-y="24"
     inkscape:window-maximized="1" />
  <metadata
     id="metadata5069">
    <rdf:RDF>
      <cc:Work
         rdf:about="">
        <dc:format>image/svg+xml</dc:format>
        <dc:type
           rdf:resource="http://purl.org/dc/dcmitype/StillImage" />
        <dc:title></dc:title>
      </cc:Work>
    </rdf:RDF>
  </metadata>
  <g
     id="layer1"
     inkscape:label="Layer 1"
     inkscape:groupmode="layer">
    <g
       id="g35733-6-3"
       inkscape:label="sc_undo"
       transform="matrix(1,0,0,-1,-19.99975,312)"
       style="display:inline">
      <rect
         y="296"
         x="19.99975"
         height="16"
         width="16"
         id="rect35735-0-1"
         style="color:#bebebe;fill:none;stroke:none;stroke-width:2;marker:none;visibility:visible;display:inline;overflow:visible" />
      <g
         style="opacity:0.25"
         id="g35737-5-4" />
      <path
         style="color:#000000;fill:none;stroke:#bebebe;stroke-width:2;stroke-linecap:butt;stroke-linejoin:miter;stroke-miterlimit:4;stroke-opacity:1;stroke-dashoffset:0;marker:none;visibility:visible;display:inline;overflow:visible;enable-background:accumulate"
         d="m 29.9998,300 0.5,0 c 1.380711,0 2.5,1.11929 2.5,2.5 0,1.38071 -1.119289,2.5 -2.5,2.5 l -6.5,0"
         id="path35770-4-9"
         inkscape:connector-curvature="0"
         sodipodi:nodetypes="csssc" />
      <path
         inkscape:connector-curvature="0"
         style="font-size:medium;font-style:normal;font-variant:normal;font-weight:normal;font-stretch:normal;text-indent:0;text-align:start;text-decoration:none;line-height:normal;letter-spacing:normal;word-spacing:normal;text-transform:none;direction:ltr;block-progression:tb;writing-mode:lr-tb;text-anchor:start;color:#bebebe;fill:#bebebe;fill-opacity:1;stroke:none;stroke-width:2;marker:none;visibility:visible;display:inline;overflow:visible;enable-background:accumulate;font-family:Bitstream Vera Sans;-inkscape-font-specification:Bitstream Vera Sans"
         d="m 26.9996,308.9779 0,-1 c 0,-0.25689 -0.12983,-0.52846 -0.3125,-0.71875 l -2.28125,-2.28125 2.28125,-2.28125 c 0.18267,-0.19029 0.3125,-0.46186 0.3125,-0.71875 l 0,-1 -1,0 c -0.30945,0 -0.55232,0.0903 -0.75,0.28125 l -3.65625,3.71875 3.65625,3.71875 c 0.19768,0.19095 0.44055,0.28125 0.75,0.28125 z"
         id="rect3217-6-2-2-4-85-2"
         sodipodi:nodetypes="ccccccccccccc" />
    </g>
    <g
       style="display:inline"
       transform="matrix(2,0,0,-2,-19.9995,608)"
       inkscape:label="lc_undo"
       id="g5114">
      <rect
         style="color:#bebebe;fill:none;stroke:none;stroke-width:2;marker:none;visibility:visible;display:inline;overflow:visible"
         id="rect5116"
         width="16"
         height="16"
         x="19.99975"
         y="296" />
      <g
         id="g5118"
         style="opacity:0.25" />
      <path
         sodipodi:nodetypes="csssc"
         inkscape:connector-curvature="0"
         id="path5120"
         d="m 29.9998,300 0.5,0 c 1.380711,0 2.5,1.11929 2.5,2.5 0,1.38071 -1.119289,2.5 -2.5,2.5 l -6.5,0"
         style="color:#000000;fill:none;stroke:#bebebe;stroke-width:2;stroke-linecap:butt;stroke-linejoin:miter;stroke-miterlimit:4;stroke-opacity:1;stroke-dashoffset:0;marker:none;visibility:visible;display:inline;overflow:visible;enable-background:accumulate" />
      <path
         sodipodi:nodetypes="ccccccccccccc"
         id="path5122"
         d="m 26.9996,308.9779 0,-1 c 0,-0.25689 -0.12983,-0.52846 -0.3125,-0.71875 l -2.28125,-2.28125 2.28125,-2.28125 c 0.18267,-0.19029 0.3125,-0.46186 0.3125,-0.71875 l 0,-1 -1,0 c -0.30945,0 -0.55232,0.0903 -0.75,0.28125 l -3.65625,3.71875 3.65625,3.71875 c 0.19768,0.19095 0.44055,0.28125 0.75,0.28125 z"
         style="font-size:medium;font-style:normal;font-variant:normal;font-weight:normal;font-stretch:normal;text-indent:0;text-align:start;text-decoration:none;line-height:normal;letter-spacing:normal;word-spacing:normal;text-transform:none;direction:ltr;block-progression:tb;writing-mode:lr-tb;text-anchor:start;color:#bebebe;fill:#bebebe;fill-opacity:1;stroke:none;stroke-width:2;marker:none;visibility:visible;display:inline;overflow:visible;enable-background:accumulate;font-family:Bitstream Vera Sans;-inkscape-font-specification:Bitstream Vera Sans"
         inkscape:connector-curvature="0" />
    </g>
  </g>
</svg>
